<svg width="50" height="44" viewBox="0 0 50 44" fill="none" xmlns="http://www.w3.org/2000/svg">
<g id="&#230;&#190;&#142;&#230;&#185;&#150;&#231;&#184;&#163;">
<path id="Vector" d="M49.2565 27.3085C50.3545 29.7487 49.3785 32.6769 46.9383 33.775L28.1488 42.6817C25.7086 43.7798 22.7804 42.8037 21.6823 40.3635L18.022 32.6769C16.9239 30.2368 17.9 27.3085 20.3402 26.2105L39.1297 17.3037C41.5699 16.2057 44.4981 17.1817 45.5962 19.6219L49.2565 27.3085Z" fill="#84CB98"/>
<path id="Vector_2" d="M10.5793 26.6985C9.48123 29.1387 6.55299 30.2367 4.1128 29.1387L3.74677 29.0167C1.30658 27.9186 0.208492 24.9904 1.30658 22.5502L6.43098 11.4473C7.52906 9.00708 10.4573 7.90899 12.8975 9.00708L13.2635 9.1291C15.7037 10.2272 16.8018 13.1554 15.7037 15.5956L10.5793 26.6985Z" fill="#84CB98"/>
<path id="Vector_3" d="M35.8351 7.05494C37.2993 9.25111 36.9332 12.1793 34.8591 13.3994C32.7849 14.6195 30.1007 13.8875 28.6366 11.5693L25.9524 7.42095C24.4882 5.22478 24.8543 2.29654 26.9284 1.07644C28.8806 -0.143655 31.6868 0.588402 33.1509 2.90658L35.8351 7.05494Z" fill="#84CB98"/>
</g>
</svg>
