<svg width="31" height="27" viewBox="0 0 31 27" fill="none" xmlns="http://www.w3.org/2000/svg">
<path d="M19.2536 21.6842C19.2536 24.3684 17.0574 26.5646 14.3732 26.5646H5.83253C3.14832 26.5646 0.952148 24.3684 0.952148 21.6842C0.952148 19 3.14832 16.8038 5.83253 16.8038H14.3732C17.0574 16.8038 19.2536 19 19.2536 21.6842Z" fill="#8894D8"/>
<path d="M30.2345 7.04304C30.2345 9.72725 28.0384 11.9234 25.3542 11.9234H14.3733C11.6891 11.9234 9.49292 9.72725 9.49292 7.04304V5.82295C9.49292 3.13874 11.6891 0.942566 14.3733 0.942566H25.3542C28.0384 0.942566 30.2345 3.13874 30.2345 5.82295V7.04304Z" fill="#8894D8"/>
</svg>
