<svg width="46" height="36" viewBox="0 0 46 36" fill="none" xmlns="http://www.w3.org/2000/svg">
<g id="&#233;&#135;&#145;&#233;&#150;&#128;&#231;&#184;&#163;">
<path id="Vector" d="M32.9426 -0.00479126C30.2584 -0.00479126 28.0622 1.70336 28.0622 3.89953C28.0622 6.0957 26.11 8.7799 23.6699 9.87799L21.4737 10.8541C19.0335 11.9521 17.0813 11.3421 17.0813 9.51194C17.0813 7.6818 14.8852 6.09569 12.201 6.09569H4.88038C2.19617 6.09569 0 8.29186 0 10.9761V30.4976C0 33.1818 2.19617 35.378 4.88038 35.378H12.201C14.8852 35.378 17.0813 33.1818 17.0813 30.4976V30.0096C17.0813 27.3254 19.0335 24.1531 21.4737 23.055L23.6699 22.0789C26.11 20.9809 28.0622 22.2009 28.0622 24.8852V25.7392C28.0622 28.4234 30.2584 30.6196 32.9426 30.6196H40.2632C42.9474 30.6196 45.1435 28.4234 45.1435 25.7392V4.99761C45.1435 2.3134 42.9474 0.117226 40.2632 0.117226H32.9426V-0.00479126Z" fill="#8894D8"/>
</g>
</svg>
